<svg xmlns="http://www.w3.org/2000/svg" viewBox="0 0 1252.87 1446.02"><defs><style>.cls-1{fill:#fff;}</style></defs><title>Recurso 6asdd</title><g id="Capa_2" data-name="Capa 2"><g id="LetraEyTexto"><polygon class="cls-1" points="702.35 1133.04 702.35 1446.02 562.8 1446.02 562.8 1272.4 562.86 1272.46 702.11 1133.2 701.95 1133.04 702.35 1133.04"/><polygon class="cls-1" points="974.37 860.31 974.37 1446.02 835.13 1446.02 835.13 999.55 974.37 860.31"/><polygon class="cls-1" points="559.07 715.37 559.07 957.88 437.69 836.5 558.95 715.24 559.07 715.37"/><polygon class="cls-1" points="838.53 435.13 838.53 677.64 717.15 556.26 838.4 435 838.53 435.13"/><polygon class="cls-1" points="1252.87 583.46 1252.87 1446.02 1113.63 1446.02 1113.63 722.7 1252.87 583.46 1252.87 583.46"/><polygon class="cls-1" points="835.16 417.4 695.89 556.63 969.18 829.94 974.37 835.13 835.13 974.37 556.8 696.04 556.65 695.89 417.42 835.13 556.8 974.51 695.74 1113.45 695.89 1113.61 556.65 1252.87 556.59 1252.81 278.16 974.37 165.17 861.38 0 696.22 696.24 0 1249.2 552.96 1252.87 556.63 1113.63 695.87 835.16 417.4"/></g></g></svg>