<svg xmlns="http://www.w3.org/2000/svg" viewBox="0 0 1296 1753.21"><defs><style>.cls-1,.cls-3{fill:#fff;}.cls-2,.cls-3{font-size:129.6px;font-family:Finesse-Regular, Finesse;}</style></defs><title>Recurso 2</title><g id="Capa_2" data-name="Capa 2"><g id="LetraEyTexto"><polygon class="cls-1" points="734.48 1133.04 734.48 1446.02 594.94 1446.02 594.94 1272.4 595 1272.46 734.24 1133.2 734.08 1133.04 734.48 1133.04"/><polygon class="cls-1" points="1006.5 860.31 1006.5 1446.02 867.26 1446.02 867.26 999.55 1006.5 860.31"/><polygon class="cls-1" points="591.21 715.37 591.21 957.88 469.82 836.5 591.08 715.24 591.21 715.37"/><polygon class="cls-1" points="870.66 435.13 870.66 677.64 749.28 556.26 870.54 435 870.66 435.13"/><polygon class="cls-1" points="1285.01 583.46 1285.01 1446.02 1145.76 1446.02 1145.76 722.7 1285 583.46 1285.01 583.46"/><polygon class="cls-1" points="867.29 417.4 728.03 556.63 1001.31 829.94 1006.5 835.13 867.26 974.37 588.93 696.04 588.79 695.89 449.55 835.13 588.93 974.51 727.87 1113.45 728.03 1113.61 588.79 1252.87 588.73 1252.81 310.29 974.37 197.3 861.38 32.13 696.22 728.37 0 1281.33 552.96 1285 556.63 1145.76 695.87 867.29 417.4"/><rect class="cls-1" x="122.78" y="1569.7" width="122.78" height="183.5"/><text class="cls-2" transform="translate(122.78 1712.95)">2</text><text class="cls-3" transform="translate(0 1712.95)">E CASTILLO</text></g></g></svg>